<svg width="48" height="48" viewBox="0 0 48 48" fill="none" xmlns="http://www.w3.org/2000/svg">
<path d="M24 4C12.954 4 4 12.954 4 24C4 35.046 12.954 44 24 44C35.046 44 44 35.046 44 24C44 12.954 35.046 4 24 4ZM29.0601 25.0601L23.0601 31.0601C22.7681 31.3521 22.384 31.5 22 31.5C21.616 31.5 21.2319 31.3541 20.9399 31.0601C20.3539 30.4741 20.3539 29.524 20.9399 28.938L25.8799 23.998L20.9399 19.0581C20.3539 18.4721 20.3539 17.522 20.9399 16.936C21.5259 16.35 22.476 16.35 23.062 16.936L29.062 22.936C29.646 23.526 29.6461 24.4741 29.0601 25.0601Z" fill="#171A20"/>
</svg>
