<svg width="48" height="48" viewBox="0 0 48 48" fill="none" xmlns="http://www.w3.org/2000/svg">
<path d="M24 4C12.954 4 4 12.954 4 24C4 35.046 12.954 44 24 44C35.046 44 44 35.046 44 24C44 12.954 35.046 4 24 4ZM27.0601 28.9399C27.6461 29.5259 27.6461 30.476 27.0601 31.062C26.7681 31.354 26.384 31.502 26 31.502C25.616 31.502 25.2319 31.356 24.9399 31.062L18.9399 25.062C18.3539 24.476 18.3539 23.5259 18.9399 22.9399L24.9399 16.9399C25.5259 16.3539 26.476 16.3539 27.062 16.9399C27.648 17.5259 27.648 18.476 27.062 19.062L22.1221 24.002L27.0601 28.9399Z" fill="#171A20"/>
</svg>
